/* XPM */
static char *texture_2[] = {
/* columns rows colors chars-per-pixel */
"64 64 218 2 ",
"   c #886500",
".  c #886501",
"X  c #896600",
"o  c #8A6700",
"O  c #8A6701",
"+  c #886403",
"@  c #896602",
"#  c #8B6800",
"$  c #8B6900",
"%  c #8B6802",
"&  c #8D6800",
"*  c #8C6901",
"=  c #8E6901",
"-  c #8C6A00",
";  c #8D6B00",
":  c #8C6903",
">  c #8D6A02",
",  c #8F6A02",
"<  c #8E6B03",
"1  c #8D6A04",
"2  c #8E6B05",
"3  c #8E6B07",
"4  c #8F6C04",
"5  c #8F6C06",
"6  c #8F6B0A",
"7  c #8F6C08",
"8  c #906D05",
"9  c #906D07",
"0  c #906D09",
"q  c #916E08",
"w  c #906C0B",
"e  c #916E0A",
"r  c #926F0B",
"t  c #916D0C",
"y  c #916D0D",
"u  c #926E0D",
"i  c #916F0E",
"p  c #926E0E",
"a  c #936F0E",
"s  c #936F0F",
"d  c #92700C",
"f  c #91700F",
"g  c #92700E",
"h  c #92700F",
"j  c #93710F",
"k  c #94700F",
"l  c #926F11",
"z  c #936F11",
"x  c #926F13",
"c  c #937110",
"v  c #937012",
"b  c #947010",
"n  c #957111",
"m  c #947211",
"M  c #947012",
"N  c #947113",
"B  c #957113",
"V  c #957312",
"C  c #947115",
"Z  c #957214",
"A  c #967214",
"S  c #967315",
"D  c #957216",
"F  c #967317",
"G  c #977416",
"H  c #987416",
"J  c #987517",
"K  c #977418",
"L  c #987318",
"P  c #987519",
"I  c #9A751A",
"U  c #99761A",
"Y  c #9B761B",
"T  c #9A771B",
"R  c #99761C",
"E  c #9A771D",
"W  c #9A761E",
"Q  c #9B771F",
"!  c #9B781C",
"~  c #9A781E",
"^  c #9B781E",
"/  c #9C791F",
"(  c #9C7820",
")  c #9D7921",
"_  c #9D7A20",
"`  c #9C7A21",
"'  c #9E7B21",
"]  c #9D7B22",
"[  c #9E7A22",
"{  c #9F7B23",
"}  c #9F7C22",
"|  c #9E7C23",
" . c #9F7D24",
".. c #A07D23",
"X. c #A07C24",
"o. c #A17D25",
"O. c #A17E24",
"+. c #A07E25",
"@. c #A07C26",
"#. c #A17D27",
"$. c #A17F26",
"%. c #A07E27",
"&. c #A27E26",
"*. c #A37F27",
"=. c #A17F28",
"-. c #A27E28",
";. c #A37F29",
":. c #A28027",
">. c #A38128",
",. c #A28029",
"<. c #A3812A",
"1. c #A48028",
"2. c #A48229",
"3. c #A4802A",
"4. c #A5812B",
"5. c #A5832A",
"6. c #A4822B",
"7. c #A4812D",
"8. c #A5832C",
"9. c #A6822C",
"0. c #A5822E",
"q. c #A6832F",
"w. c #A6842D",
"e. c #A7852E",
"r. c #A8842E",
"t. c #A9852F",
"y. c #A8862F",
"u. c #A78430",
"i. c #A88531",
"p. c #A98531",
"a. c #A98730",
"s. c #A98632",
"d. c #AA8733",
"f. c #AA8735",
"g. c #AA8831",
"h. c #A88833",
"j. c #AB8932",
"k. c #A98934",
"l. c #AB8834",
"z. c #AB8836",
"x. c #AB8B36",
"c. c #AC8935",
"v. c #AC8937",
"b. c #AD8A36",
"n. c #AE8B37",
"m. c #AD8A38",
"M. c #AE8B39",
"N. c #AD8D38",
"B. c #AF8C38",
"V. c #AE8E39",
"C. c #AD8D3A",
"Z. c #AF8C3A",
"A. c #AE8E3B",
"S. c #AF8F3C",
"D. c #AF8E3D",
"F. c #B08D39",
"G. c #B08D3B",
"H. c #B18E3A",
"J. c #B28F3B",
"K. c #B18E3C",
"L. c #B18E3D",
"P. c #B28F3D",
"I. c #B08F3E",
"U. c #B0903D",
"Y. c #B2923D",
"T. c #B1913E",
"R. c #B1903F",
"E. c #B3903E",
"W. c #B2923F",
"Q. c #B4913D",
"!. c #B4913F",
"~. c #B29140",
"^. c #B39340",
"/. c #B39241",
"(. c #B59240",
"). c #B59241",
"_. c #B69341",
"`. c #B49342",
"'. c #B69342",
"]. c #B49441",
"[. c #B59542",
"{. c #B59443",
"}. c #B79442",
"|. c #B79443",
" X c #B69643",
".X c #B69544",
"XX c #B79645",
"oX c #B69745",
"OX c #B89544",
"+X c #B99645",
"@X c #B89746",
"#X c #B79846",
"$X c #B99847",
"%X c #B89947",
"&X c #BB9847",
"*X c #B89949",
"=X c #BA9948",
"-X c #B99A48",
";X c #BB9A49",
":X c #BA9B49",
">X c #BA994A",
",X c #B99A4A",
"<X c #BB9A4B",
"1X c #BA9B4B",
"2X c #BC9948",
"3X c #BC9B4A",
"4X c #BE9B4A",
"5X c #BD9C4B",
"6X c #BF9C4B",
"7X c #BC9B4C",
"8X c #BB9C4C",
"9X c #BD9C4D",
"0X c #BC9D4D",
"qX c #BE9D4E",
"wX c #BD9E4E",
"eX c #BF9E4F",
"rX c #BE9F4F",
"tX c #BFA050",
/* pixels */
"tXtXrXtXtXrXtXtXtXtXrXrXtXtXtXrXrXtXrXrXrXrXrXrXrXtXtXrXtXtXtXrXrXrXtXrXrXtXrXrXtXrXtXrXtXrXtXrXtXtXtXtXrXrXtXtXrXrXtXrXrXrXrXtX",
"rXrXrXtXtXrXrXrXtXtXrXrXrXrXtXtXrXrXtXtXrXrXtXrXtXtXrXrXtXrXrXrXrXrXtXrXrXtXrXrXtXtXtXrXtXrXtXrXrXrXrXrXrXtXtXtXtXrXtXtXrXtXtXtX",
"rXrXtXtXtXtXrXrXrXrXrXrXrXrXtXtXrXtXrXrXrXrXtXtXrXrXrXrXrXrXrXrXrXtXrXtXtXtXtXrXrXtXrXrXrXrXrXrXrXrXrXrXrXrXtXtXrXrXtXtXtX8XtXrX",
"tXrXrXrXrXrXrXrXrXrXrXrXrXrXrXtXrXtXrXrXrXrXrXtXrXrXrXrXrXrXtXrXtXrXrXrXtXrXtXtXrXrXrXrXtXrXrXrXrXrXrXrXrXrXrX8XrXrXrXtXrXrXrXrX",
"tXrXrXrXrXrXrXrXrXrXrXrXrXrXrXrXrXrXrXrXrXrXrXrXrXrXrXrX8XrXrXrXrXrXrXrXtXrXrXrXrXrXrXrXrXrXrXrXrXrXrXrXrXrXtXrXrXtXtXtXrXrXrXrX",
"rXrXrXrXrXrXrXrXrXrXrXrXrXrXrXrXrXrXrXrXrX3XrXrXrXrXrXrXrXrXrXrXrXrXrXrXrXrXrXrXrXrXrXrXrXrXrXrXrXrXrXrX8XrX8XrX8XtX8X8XrX8XrXrX",
"rXrXrXrXrXrXrXrXrXrXrXrX8XrXrXrXrXrXrXrXrXrXrXrX8X8XrXrXrXrXrXrXrX8XrXrXrXtXrX8XrXrX8XrX<XrXrX7XrXrXrXrX8XrX8X8X8X8X8X8X8X8XrX8X",
"rXrXrX8XrXrXrX8XrXrXrXrX8XrXrX8X7XrX:XrXrX<XrXrXrXrXrX8X8X8X8X8X8X8XrX8X8X8X8XrX8XrX8XrX<XrXrXrX:X8X<X8X8X8X8X8X8X8X8X8X8X:XrX8X",
"rXeXeXeXrXeXrXeXrX8X7XrXrXrXrX7XqX7XqX7XqXqXrX<X7XrXrXrX7X<XrXrXrX7XrX7XrX<X7X7X<XrXqX<X7XqXqX<X8X8X<X*X7X7X7X7X8X7X8X<X8X8X<X:X",
"rXeX7X7X7X7XrXeXrX7XrX7X7X7XrX<XqX3X7XqXqX7XqXqXrX:X<XrXrXrX<X3X7X7X7X7X<XrX7XrX6X3X3X<X<X<X7X<X<X*X<X<X,X7X$X$X*X<X<X<X<X8X7X8X",
"7X7X7X7X7X7X7X7X<X7X7X7X7X7X7X<X<X3X7X7X<X<X3X3X<X4X3X3X<X<X<X<X7X7X7X7X:X8X<X<X<X3X3X6X$X<X$X$X*X*X<X*X*X$X7X7X<X<X&X&X%X<X<X<X",
"7X7X7XrX7X7X7X7X7X7X7X7X7X<X<X<X<X<X<X<X<X<X<X&X:X&X3X3X&X&X<X$X7X7X<X<X<X&X<X<X&X&X&X<X$X$X$X$X%X%X$X$X$X$X$X$XoX&XoX%XoX&X&X%X",
"7X<X<XrX7X7X$X7X&X<X$X<X<X<X&X&X$X$X$X$X<X$X$X$X&X%X&X<X$X2X$X$X<X<X&X<X&X%X$X$X:X&X$XoX$X$XoX$XoXoX$XoXoXoXoXoXoXoX|.%XoXoX&XoX",
"<X<X<X&X2X$X$X<X&X$X$X$X$X&X%X&X$X$X<X$X$X$X$X$X&X%X%X&X$X2X2X2X$X&XoX%XoXoX$XoX|.%XoXoX$XoXoXoXoX|.oX|.^.|.|.~.|.oX^.|.|.|.|.oX",
"&X<X&X&X$X$X$XoX&X&X$X$XoX$X%XoXoX$XoX$X$X|.oXoXoXoX X%X$XoXoX$XOX|.&X%XoXoX$XoX|.oXoX|.|.`.|.oX|.|.~.|.~.|.~.|.|.^.|.^.^.|.~.oX",
"%X%X&X%X$XoX$XoXoXoXoX|.$X|.oXoX|.$X|.oXoX|.oX|.oXoXoX^.oX|.|.oXOX|.|.|.|.oX|.|.^.^.~.~.~.|.~.~.P.~.~.~.~.~.W.!.W.W.!.!.W.!.|.|.",
"oXoXoXoXoXoXoX|.|. X X X X|.|.oX|.~.^.|.|.|.~.^.|.^.^.|.^.^.|.~.^.|.^.W.|.W.|.!.W.W.P.W.W.Q.J.W.P.A.P.~.K.K.J.P.P.K.S.P.U.W.S.W.",
"oX|.|.|.|.~.|.~.^.|.^.^.^.^.W.W.|.|.~.~.^.|.W.^.W.P.W.W.W.^.W.|.W.W.W.W.W.W.W.K.U.U.U.W.W.J.K.S.A.A.A.A.B.B.S.m.K.m.K.S.S.S.A.P.",
"|.~.|.|.|.W.~.~.W.!.W.W.^.W.W.W.P.P.U.U.!.K.W.A.P.P.U.U.U.S.S.K.W.K.J.W.K.B.K.B.S.S.S.m.K.B.B.n.m.m.m.m.n.c.c.n.n.n.n.m.n.S.m.P.",
"W.~.^.~.W.W.U.U.P.P.P.P.U.S.K.K.S.K.A.U.K.S.K.S.S.S.S.S.S.S.m.K.B.S.S.N.B.B.K.n.m.c.n.K.B.j.n.j.n.f.f.n.h.l.c.l.f.n.f.f.f.f.n.n.",
"W.P.P.K.K.K.S.S.Z.K.m.m.m.m.m.K.B.m.m.n.n.n.m.m.c.B.B.c.n.B.S.c.c.k.B.B.n.n.j.s.c.c.f.c.l.l.l.l.s.s.a.r.l.q.h.q.y.a.r.a.s.j.n.c.",
"S.K.S.S.n.n.B.B.n.n.n.n.n.n.n.s.n.f.n.n.j.n.n.d.l.l.c.l.l.c.c.c.l.l.l.l.j.j.s.s.s.s.i.h.a.a.q.w.r.r.q.q.q.q.q.a.q.y.r.w.r.s.s.s.",
"n.n.n.n.n.n.c.l.j.s.s.s.s.s.s.s.s.s.s.s.s.s.s.r.l.l.a.y.q.l.a.y.a.a.q.a.w.r.r.q.0.i.i.0.q.q.6.0.0.w.:.w.w.,.2.6.1.w.w.w.w.q.q.r.",
"n.s.l.l.h.s.s.s.s.s.s.s.u.s.h.q.0.s.s.s.r.0.s.r.q.a.q.w.q.w.6.q.w.e.q.w.w.w.w.w.,.0.0.,.1.6.,.=.,.:.:.:.:.$.,.=.X.:.1.:.:.w.6.6.",
"s.s.s.s.a.r.r.q.q.q.q.w.q.r.w.6.6.6.6.6.q.2.q.,.q.2.6.6.,.6.,.6.:.:.,.q.,.,.2.,.,.,.,.,.O.O.{ O.O.X.X.X.O.} O.} O.O.O.O.O.;.;.;.",
"s.s.s.r.q.6.w.w.w.:.2.2.0.=.:.,.,.,.,.,.%.,.,.$.:.=.,.,.,.,.,.=.:.:.:.O.:.$.:.$. .} }  .O. .{ { { { { / { / { { { O.X.X.O.X.;.;.",
"q.0.6.6.0.,.,.=.=.=.:.:.X.O.O.O. .} X.} {  . .}  .}  . .} }  .} } } { {  .} } } { ` ` { { { R { ^ ` { { R ^ / ^ ` / / / / { X.X.",
"6.,.,.,.=.O.O.O.X.O. .} { { { {  .{ { { { { { { ` } } ` } } } / { { { ^ } / { ^ ^ ^ ^ ^ { R { R R P R ^ R R / P P / / Y / / { { ",
":.:.O.} O.{ { } { Q { ^ / / { / ^ ^ / { ^ ^ R { ^ ` ^ { ^ ^ { ^ R Q ^ ^ ^ ^ ^ T Y P R R R P R P P F P P L P P J P P P P P / / / ",
"X.{ X./ { { / ^ Q Q R R ^ P P P R R R P ^ P R R P P P T T P P T R R R R P P P T Y A L L P F P L P F V F F F J F P J P P P / P / ",
"} { / ^ R T T T P P P P P P P P P F F F P P F P P P P F F F F P P L L P J P F F A F F V V F F V F V V V V F V F F V F F P P P / ",
"/ ^ ^ ^ P P P P J J P F F F F V F F V F V F F V N V F N V F F V F C V V F V F V F V z z z N z z V k V V z z z x z V z F V V J J ",
"P R P P F F F F V F C N N N b b j j N j j N j j N j j N j N N N N j N N j N j N z V a a a a a z a a z a a a a j y f j V b V F F ",
"P P P F V j N z a N a z a a a z f f f j f y j j f j j j j f N a a j a a j a a j z z a a a 3 q w w a w a a z a y j j a a a N j F ",
"J F N N V a z z a a a a a 6 a w 6 6 f 6 6 y e a 6 a e e 6 q a a a a 6 a a q 6 q a q a q q q q 3 6 6 3 6 6 q 3 a 6 a 6 a j j N j ",
"V V N a a a a a a 3 6 q 5 6 2 3 5 5 5 6 5 6 6 5 5 6 q 5 5 5 q 6 5 5 5 q 6 6 q 6 3 3 2 3 2 q 2 q 5 5 2 5 5 6 6 5 6 a 6 a a a j V ",
"j a a a w w q 3 3 2 2 > 2 > 3 2 < < < < < 5 < 5 5 5 5 1 2 2 2 3 2 2 2 2 5 2 2 3 2 2 3 2 5 5 5 < < 8 < < < < < 5 2 3 3 q w a z a ",
"a a q 3 q 3 3 2 2 2 % 2 > 2 > 2 < < < % % < < % 1 1 1 - > > 2 : : 2 > 2 > > : 2 > > > 2 > > > 5 < < < < < > > > 2 2 w q q 3 w w ",
"q 6 5 2 2 2 > > > > % > o > % > < % % % % < - % < % % % % > > % > o & > o > % % > > % & > % % > > < > > > > % > > > > > 2 2 q a ",
"6 5 2 > 2 o & > & > % o > o > % % % % % % % % % % - % % % % % % & & & & > & > > % % % > > % % % % % % > % 5 > > 2 > 2 > 2 2 2 3 ",
"5 > % > % > % % % % % o o o o o % % % % . . % % % % % % % % % % o > o o o % % % % % % % % % % % % % % % % % > % > o > > > > 8 8 ",
"> % % % % % % % o o o o o o % % . % . % % % % . o o o o o o o o o o o o o o o o o o o o o o o o o o % % % % % % > > > > > > 2 2 ",
"> % % % % % o o % % o . . . o . . . % % % % % . o o o o o o o o o : o o o o o o o o o o o o o o o o o o o o o % o > o o o > 2 > ",
"% % % % o % . . . o . o . o . o % . . . . . % . . o . o o . o . + o o o o . o . . o . o . o . o o o o o o o o o o o o > > > o 2 ",
"o o o % . . o . . o . . . o . . . . . % . . % . o . o . . o . o . o . o . o . o o . o . o . o . o . o . . o o o : o o o o o 2 o ",
"o o o % . o . o o . o . . . . . % % . . . . . . . . . . . . . . + + . . . . . . . o . o . o . o . o . o o . o . + o : o o o o > ",
". . o . o . . . . . . . . . . . . . . . . . . . . . . . . . . . . . . . . . . . . . . . . . . . . . o . o o o . + . o : o o > o ",
". o . o . o . . o . . . . . . . . . . . . . . . . . . . . . . . . . . . . . . . . . . . . . . . o . . . . o . . o . o o o o > o ",
". . . . . . . . . . . . . . . . . . . . . . . . . . . . . . . . . . . . . . . . . . . . . . . . + . o . o . o . o . . o . o o o ",
". . . . . . . . . . . . . . . . . . . . . . . . . . . . . . . . . . . . . . . . . . . . . . . . . . . o . o . o . o o . o . . o ",
". . . . . . . . . . . . . . . . . . . . . . . . . . . . . . . . . . . . . . . . . . . . . . . . . . . . . . . . o o . o . o o o ",
". . . . . . . . . . . . . . . . . . . . . . . . . . . . . . . . . . . . . . . . . . . . . . . . . . . . . . . . . . o . o . o . ",
". . . . . . . . . . . . . . . . . . . . . . . . . . . . . . . . . . . . . . . . . . . . . . . . . . . . . . . . . o o . . o . o ",
". . . . . . . . . . . . . . . . . . . . . . . . . . . . . . . . . . . . . . . . . . . . . . . . . . . . . . . . . . . o o . o . ",
". . . . . . . . . . . . . . . . . . . . . . . . . . . . . . . . . . . . . . . . . . . . . . . . . . . . . . . . . . . . . o . o ",
". . . . . . . . . . . . . . . . . . . . . . . . . . . . . . . . . . . . . . . . . . . . . . . . . . . . . . . . . o . . . . o . ",
". . . . . . . . . . . . . . . . . . . . . . . . . . . . . . . . . . . . . . . . . . . . . . . . . . . . . . . . . . . . o . o . ",
". . . . . . . . . . . . . . . . . . . . . . . . . . . . . . . . . . . . . . . . . . . . . . . . . . . . . . . . . . . . . o . o ",
". . . . . . . . . . . . . . . . . . . . . . . . . . . . . . . . . . . . . . . . . . . . . . . . . . . . . . . . . . . . o . o . ",
". . . . . . . . . . . . . . . . . . . . . . . . . . . . . . . . . . . . . . . . . . . . . . . . . . . . . . . . . . . . . o . o ",
". . . . . . . . . . . . . . . . . . . . . . . . . . . . . . . . . . . . . . . . . . . . . . . . . . . . . . . . . . . . o . o . ",
". . . . . . . . . . . . . . . . . . . . . . . . . . . . . . . . . . . . . . . . . . . . . . . . . . . . . . . . . . . . . o . o ",
". . . . . . . . . . . . . . . . . . . . . . . . . . . . . . . . . . . . . . . . . . . . . . . . . . . . . . . . . . . . o . o . ",
". . . . . . . . . . . . . . . . . . . . . . . . . . . . . . . . . . . . . . . . . . . . . . . . . . . . . . . . . . . . . o . o "
};
